<?xml version="1.0" encoding="UTF-8" standalone="no"?>
<!-- Created with Inkscape (http://www.inkscape.org/) -->

<svg
   xmlns:dc="http://purl.org/dc/elements/1.1/"
   xmlns:cc="http://creativecommons.org/ns#"
   xmlns:rdf="http://www.w3.org/1999/02/22-rdf-syntax-ns#"
   xmlns:svg="http://www.w3.org/2000/svg"
   xmlns="http://www.w3.org/2000/svg"
   xmlns:sodipodi="http://sodipodi.sourceforge.net/DTD/sodipodi-0.dtd"
   xmlns:inkscape="http://www.inkscape.org/namespaces/inkscape"
   width="98.030991mm"
   height="98.005951mm"
   viewBox="0 0 98.030991 98.005951"
   version="1.1"
   id="svg8"
   inkscape:version="0.92.2 (5c3e80d, 2017-08-06)"
   sodipodi:docname="radome.svg">
  <defs
     id="defs2" />
  <sodipodi:namedview
     id="base"
     pagecolor="#ffffff"
     bordercolor="#666666"
     borderopacity="1.0"
     inkscape:pageopacity="0.0"
     inkscape:pageshadow="2"
     inkscape:zoom="2"
     inkscape:cx="278.08693"
     inkscape:cy="183.61511"
     inkscape:document-units="mm"
     inkscape:current-layer="layer1-3"
     showgrid="false"
     fit-margin-top="0"
     fit-margin-left="0"
     fit-margin-right="0"
     fit-margin-bottom="0"
     inkscape:window-width="1920"
     inkscape:window-height="986"
     inkscape:window-x="-11"
     inkscape:window-y="-11"
     inkscape:window-maximized="1" />
  <metadata
     id="metadata5">
    <rdf:RDF>
      <cc:Work
         rdf:about="">
        <dc:format>image/svg+xml</dc:format>
        <dc:type
           rdf:resource="http://purl.org/dc/dcmitype/StillImage" />
        <dc:title />
      </cc:Work>
    </rdf:RDF>
  </metadata>
  <g
     inkscape:label="レイヤー 1"
     inkscape:groupmode="layer"
     id="layer1"
     transform="translate(-72.680314,-103.61012)">
    <g
       transform="translate(25.324402,-7.9375029)"
       id="layer1-3"
       inkscape:label="レイヤー 1">
      <ellipse
         style="opacity:1;fill:#8dddff;fill-opacity:1;stroke:#8dddff;stroke-width:0.99663883;stroke-linecap:square;stroke-miterlimit:4;stroke-dasharray:none;stroke-opacity:1"
         id="path865"
         cx="96.373444"
         cy="160.71967"
         rx="48.50489"
         ry="48.571037" />
      <rect
         y="155.50052"
         x="63.405502"
         height="1.7428153"
         width="69.16964"
         id="rect833"
         style="opacity:1;fill:#8dddff;fill-opacity:1;stroke:none;stroke-width:1.04159522;stroke-linecap:square;stroke-miterlimit:4;stroke-dasharray:none;stroke-opacity:1" />
      <path
         style="opacity:1;fill:#ffffff;fill-opacity:1;stroke:none;stroke-width:0.31757182;stroke-linecap:square;stroke-miterlimit:4;stroke-dasharray:none;stroke-opacity:1"
         d="m 96.360675,151.65535 a 49.005191,11.384944 0 0 0 -48.980473,11.27074 49.005191,11.384944 0 0 0 -0.02429,0.11409 49.005191,11.384944 0 0 0 49.004759,11.38483 49.005191,11.384944 0 0 0 49.005289,-11.38483 49.005191,11.384944 0 0 0 -0.0176,-0.11409 49.005191,11.384944 0 0 0 -48.987708,-11.27074 z"
         id="path851"
         inkscape:connector-curvature="0" />
      <path
         inkscape:connector-curvature="0"
         style="opacity:0.5;fill:#ffffff;fill-opacity:1;stroke:none;stroke-width:0.16582158;stroke-linecap:square;stroke-miterlimit:4;stroke-dasharray:none;stroke-opacity:1"
         d="m 96.376588,189.38095 a 36.009602,4.224281 0 0 0 -35.99144,4.18191 36.009602,4.224281 0 0 0 -0.01784,0.0424 36.009602,4.224281 0 0 0 36.009286,4.22423 36.009602,4.224281 0 0 0 36.009656,-4.22423 36.009602,4.224281 0 0 0 -0.0129,-0.0424 36.009602,4.224281 0 0 0 -35.996754,-4.18191 z"
         id="path851-7" />
      <path
         inkscape:connector-curvature="0"
         style="opacity:0.25;fill:#ffffff;fill-opacity:1;stroke:none;stroke-width:0.09418473;stroke-linecap:square;stroke-miterlimit:4;stroke-dasharray:none;stroke-opacity:1"
         d="m 96.376653,200.81376 a 24.687945,1.9877654 0 0 0 -24.675499,1.96783 24.687945,1.9877654 0 0 0 -0.01223,0.0199 24.687945,1.9877654 0 0 0 24.687732,1.98774 24.687945,1.9877654 0 0 0 24.687974,-1.98774 24.687945,1.9877654 0 0 0 -0.009,-0.0199 24.687945,1.9877654 0 0 0 -24.679136,-1.96783 z"
         id="path851-7-4" />
      <path
         inkscape:connector-curvature="0"
         style="opacity:0.75;fill:#ffffff;fill-opacity:1;stroke:none;stroke-width:0.21239541;stroke-linecap:square;stroke-miterlimit:4;stroke-dasharray:none;stroke-opacity:1"
         d="m 96.360494,176.18578 a 44.102119,5.6587418 0 0 0 -44.079878,5.60198 44.102119,5.6587418 0 0 0 -0.02186,0.0568 44.102119,5.6587418 0 0 0 44.101734,5.65867 44.102119,5.6587418 0 0 0 44.10218,-5.65867 44.102119,5.6587418 0 0 0 -0.0158,-0.0568 44.102119,5.6587418 0 0 0 -44.086385,-5.60198 z"
         id="path851-7-8" />
      <path
         inkscape:connector-curvature="0"
         id="path956"
         d="m 96.360675,151.65535 a 49.005191,11.384944 0 0 0 -48.980473,11.27074 49.005191,11.384944 0 0 0 -0.02429,0.11409 49.005191,11.384944 0 0 0 49.004759,11.38483 49.005191,11.384944 0 0 0 49.005289,-11.38483 49.005191,11.384944 0 0 0 -0.0176,-0.11409 49.005191,11.384944 0 0 0 -48.987708,-11.27074 z"
         style="opacity:1;fill:#ffffff;fill-opacity:1;stroke:none;stroke-width:0.31757182;stroke-linecap:square;stroke-miterlimit:4;stroke-dasharray:none;stroke-opacity:1" />
      <path
         style="opacity:0.25;fill:none;stroke:#8dddff;stroke-width:0.26141348px;stroke-linecap:butt;stroke-linejoin:miter;stroke-opacity:1"
         d="m 71.624635,202.69352 24.898907,0.088 v 0"
         id="path989"
         inkscape:connector-curvature="0"
         sodipodi:nodetypes="ccc" />
      <path
         style="opacity:0.5;fill:none;stroke:#8dddff;stroke-width:0.30000001;stroke-linecap:butt;stroke-linejoin:miter;stroke-miterlimit:4;stroke-dasharray:none;stroke-opacity:1"
         d="m 87.147719,189.45865 9.111613,3.92446 v 0"
         id="path989-3"
         inkscape:connector-curvature="0"
         sodipodi:nodetypes="ccc" />
      <path
         style="opacity:0.75;fill:none;stroke:#8dddff;stroke-width:0.60000002;stroke-linecap:butt;stroke-linejoin:miter;stroke-miterlimit:4;stroke-dasharray:none;stroke-opacity:1"
         d="m 112.07332,176.31623 -15.443775,5.28086 v 0"
         id="path989-3-3"
         inkscape:connector-curvature="0"
         sodipodi:nodetypes="ccc" />
      <path
         style="opacity:1;fill:none;stroke:#8dddff;stroke-width:1;stroke-linecap:butt;stroke-linejoin:miter;stroke-miterlimit:4;stroke-dasharray:none;stroke-opacity:1"
         d="m 145.36596,163.04018 -48.66178,0.0607"
         id="path989-3-3-2"
         inkscape:connector-curvature="0"
         sodipodi:nodetypes="cc" />
      <g
         aria-label="RADOME"
         style="font-style:normal;font-variant:normal;font-weight:normal;font-stretch:normal;font-size:14.11111069px;line-height:1.25;font-family:'Century Gothic';-inkscape-font-specification:'Century Gothic, Normal';font-variant-ligatures:normal;font-variant-caps:normal;font-variant-numeric:normal;font-feature-settings:normal;text-align:start;letter-spacing:0px;word-spacing:0px;writing-mode:lr-tb;text-anchor:start;fill:#000000;fill-opacity:1;stroke:none;stroke-width:0.26458332"
         id="text869">
        <path
           d="m 67.297499,158.27539 h 2.018826 q 1.688097,0 2.287543,0.1378 0.902615,0.20671 1.467611,0.88884 0.564995,0.67523 0.564995,1.66742 0,0.82683 -0.39274,1.45383 -0.385851,0.62701 -1.109321,0.95085 -0.72347,0.31695 -1.998156,0.32384 l 3.644911,4.71289 h -1.254014 l -3.638021,-4.71289 h -0.578776 v 4.71289 h -1.012858 z m 1.012858,0.99219 v 3.44509 l 1.743218,0.0138 q 1.012858,0 1.495172,-0.19292 0.489203,-0.19293 0.757921,-0.61323 0.275607,-0.42719 0.275607,-0.95085 0,-0.50987 -0.275607,-0.92328 -0.275608,-0.42031 -0.72347,-0.59945 -0.447863,-0.17914 -1.488282,-0.17914 z"
           style="font-style:normal;font-variant:normal;font-weight:normal;font-stretch:normal;font-size:14.11111069px;font-family:'Century Gothic';-inkscape-font-specification:'Century Gothic, Normal';font-variant-ligatures:normal;font-variant-caps:normal;font-variant-numeric:normal;font-feature-settings:normal;text-align:start;writing-mode:lr-tb;text-anchor:start;stroke-width:0.26458332"
           id="path890" />
        <path
           d="m 79.95478,158.27539 4.726671,10.13547 h -1.08865 l -1.591635,-3.33485 h -4.368381 l -1.584743,3.33485 H 74.91805 l 4.788683,-10.13547 z m -0.124024,2.14974 -1.743218,3.67247 h 3.465766 z"
           style="font-style:normal;font-variant:normal;font-weight:normal;font-stretch:normal;font-size:14.11111069px;font-family:'Century Gothic';-inkscape-font-specification:'Century Gothic, Normal';font-variant-ligatures:normal;font-variant-caps:normal;font-variant-numeric:normal;font-feature-settings:normal;text-align:start;writing-mode:lr-tb;text-anchor:start;stroke-width:0.26458332"
           id="path892" />
        <path
           d="m 86.259303,168.41086 v -10.13547 h 2.101508 q 2.273763,0 3.300402,0.36518 1.474501,0.51676 2.301323,1.79145 0.833714,1.27468 0.833714,3.03857 0,1.52273 -0.661459,2.68029 -0.654568,1.15755 -1.708767,1.70876 -1.047309,0.55122 -2.942112,0.55122 z m 0.971517,-0.95774 h 1.171332 q 2.101509,0 2.914551,-0.26183 1.143772,-0.37207 1.79834,-1.33669 0.654568,-0.97152 0.654568,-2.37023 0,-1.46761 -0.70969,-2.50803 -0.709689,-1.04042 -1.977484,-1.42627 -0.950847,-0.28939 -3.135037,-0.28939 h -0.71658 z"
           style="font-style:normal;font-variant:normal;font-weight:normal;font-stretch:normal;font-size:14.11111069px;font-family:'Century Gothic';-inkscape-font-specification:'Century Gothic, Normal';font-variant-ligatures:normal;font-variant-caps:normal;font-variant-numeric:normal;font-feature-settings:normal;text-align:start;writing-mode:lr-tb;text-anchor:start;stroke-width:0.26458332"
           id="path894" />
        <path
           d="m 101.58998,158.02045 q 2.30132,0 3.85162,1.53651 1.55029,1.53652 1.55029,3.78272 0,2.22553 -1.55029,3.77582 -1.54341,1.5503 -3.76894,1.5503 -2.253091,0 -3.803384,-1.54341 -1.550293,-1.5434 -1.550293,-3.73448 0,-1.46072 0.7028,-2.70785 0.709689,-1.24712 1.929253,-1.94992 1.219564,-0.70969 2.638944,-0.70969 z m 0.0482,0.99219 q -1.1231,0 -2.129068,0.58566 -1.005968,0.58567 -1.570964,1.57786 -0.564996,0.99219 -0.564996,2.21175 0,1.80523 1.247125,3.05235 1.254015,1.24024 3.017903,1.24024 1.17822,0 2.1773,-0.57189 1.00597,-0.57188 1.56407,-1.56407 0.565,-0.99219 0.565,-2.20486 0,-1.20579 -0.565,-2.1773 -0.5581,-0.97841 -1.57785,-1.56408 -1.01975,-0.58566 -2.16352,-0.58566 z"
           style="font-style:normal;font-variant:normal;font-weight:normal;font-stretch:normal;font-size:14.11111069px;font-family:'Century Gothic';-inkscape-font-specification:'Century Gothic, Normal';font-variant-ligatures:normal;font-variant-caps:normal;font-variant-numeric:normal;font-feature-settings:normal;text-align:start;writing-mode:lr-tb;text-anchor:start;stroke-width:0.26458332"
           id="path896" />
        <path
           d="m 108.56285,168.41086 1.44005,-10.13547 h 0.16536 l 4.12034,8.31646 4.07899,-8.31646 h 0.16537 l 1.45383,10.13547 h -0.99908 l -0.99219,-7.24848 -3.5829,7.24848 h -0.25493 l -3.63114,-7.3036 -0.98529,7.3036 z"
           style="font-style:normal;font-variant:normal;font-weight:normal;font-stretch:normal;font-size:14.11111069px;font-family:'Century Gothic';-inkscape-font-specification:'Century Gothic, Normal';font-variant-ligatures:normal;font-variant-caps:normal;font-variant-numeric:normal;font-feature-settings:normal;text-align:start;writing-mode:lr-tb;text-anchor:start;stroke-width:0.26458332"
           id="path898" />
        <path
           d="m 122.0125,158.27539 h 5.80844 v 0.99908 h -4.79558 v 3.16948 h 4.75423 v 0.99219 h -4.75423 v 3.97564 h 4.75423 v 0.99908 h -5.76709 z"
           style="font-style:normal;font-variant:normal;font-weight:normal;font-stretch:normal;font-size:14.11111069px;font-family:'Century Gothic';-inkscape-font-specification:'Century Gothic, Normal';font-variant-ligatures:normal;font-variant-caps:normal;font-variant-numeric:normal;font-feature-settings:normal;text-align:start;writing-mode:lr-tb;text-anchor:start;stroke-width:0.26458332"
           id="path900" />
      </g>
      <path
         style="fill:none;stroke:#000000;stroke-width:1;stroke-linecap:butt;stroke-linejoin:miter;stroke-miterlimit:4;stroke-dasharray:none;stroke-opacity:1"
         d="m 101.46871,163.09914 4.77336,-0.0137"
         id="path972"
         inkscape:connector-curvature="0"
         sodipodi:nodetypes="cc" />
    </g>
  </g>
</svg>
